Results
version=1
nRows=22
nColumns=24
inDegrees=yes
endheader
time	pelvis_tilt	pelvis_list	pelvis_rotation	pelvis_tx	pelvis_ty	pelvis_tz	hip_flexion_r	hip_adduction_r	hip_rotation_r	knee_angle_r	ankle_angle_r	subtalar_angle_r	mtp_angle_r	hip_flexion_l	hip_adduction_l	hip_rotation_l	knee_angle_l	ankle_angle_l	subtalar_angle_l	mtp_angle_l	lumbar_extension	lumbar_bending	lumbar_rotation
      0.93750000	      2.28645830	     -0.11697564	     -3.17186815	     -0.39065152	      1.08453222	      0.31302835	      6.79123988	      5.90399011	     -2.03933841	    -15.41642735	      0.24375088	     -9.03274875	      3.25206770	      9.28801215	      0.93148585	     -0.47312597	    -51.18684215	      0.39344356	    -22.14704554	      2.52831439	      1.83266571	      4.22607959	      3.11383632
      0.94166667	      2.30493580	     -0.16330423	     -3.24128680	     -0.38554961	      1.08494036	      0.31318331	      6.40553366	      5.95234583	     -1.95046943	    -15.29698649	      0.41826861	     -8.99645797	      3.26196057	      9.72816370	      0.90694529	     -0.15632232	    -50.74700079	      0.58724043	    -22.83250143	      2.22692675	      1.78206132	      4.26881507	      3.22111882
      0.94583333	      2.31227652	     -0.24755251	     -3.28354280	     -0.38049492	      1.08529627	      0.31348554	      6.01293339	      6.06288440	     -1.79314374	    -15.13114516	      0.51907937	     -8.94714162	      3.26648273	     10.18650951	      0.81733085	      0.17315007	    -50.31395991	      0.73994587	    -23.16044913	      2.08693319	      1.75032390	      4.28127465	      3.27932825
      0.95000000	      2.32438514	     -0.28572141	     -3.37651148	     -0.37542954	      1.08564754	      0.31347083	      5.64419434	      6.07915232	     -1.76183049	    -15.03934116	      0.74151263	     -8.93771577	      3.27184615	     10.61707482	      0.81966173	      0.50065614	    -49.82744619	      0.97244532	    -23.77882270	      1.79659392	      1.69737640	      4.37542796	      3.39031773
      0.95416667	      2.31217244	     -0.35167995	     -3.44220135	     -0.37044423	      1.08593027	      0.31366610	      5.27895566	      6.15332420	     -1.59953666	    -14.87916742	      0.80119926	     -8.88265711	      3.27384973	     11.08281003	      0.76142751	      0.85232518	    -49.33931351	      1.05447767	    -23.92505366	      1.71782248	      1.65881028	      4.38908002	      3.42809104
      0.95833333	      2.32076191	     -0.43003934	     -3.49688378	     -0.36537110	      1.08623541	      0.31370171	      4.89139389	      6.22112176	     -1.59718515	    -14.73726597	      1.05963922	     -8.84119901	      3.27619625	     11.51009882	      0.70850855	      1.19676210	    -48.82619934	      1.27086303	    -24.42373667	      1.40940872	      1.63681228	      4.52849893	      3.56575489
      0.96250000	      2.30838938	     -0.52765310	     -3.55333235	     -0.36038838	      1.08646287	      0.31390998	      4.51348313	      6.33102385	     -1.45531087	    -14.55316700	      1.13172452	     -8.76205780	      3.27730564	     11.96513239	      0.60883092	      1.54024097	    -48.30975895	      1.33277973	    -24.52962433	      1.28945918	      1.60987698	      4.56464974	      3.62189702
      0.96666667	      2.28928126	     -0.59669219	     -3.64286161	     -0.35541407	      1.08666880	      0.31394284	      4.15524691	      6.38512018	     -1.34520744	    -14.40221553	      1.21838702	     -8.72348118	      3.27779132	     12.40961940	      0.56153146	      1.90030930	    -47.75205837	      1.43039079	    -24.61310864	      1.21651005	      1.57149210	      4.63167268	      3.65711345
      0.97083333	      2.28645938	     -0.70343638	     -3.65056526	     -0.35038701	      1.08686389	      0.31389407	      3.76493284	      6.47801016	     -1.39141288	    -14.22967294	      1.51700883	     -8.64753323	      3.27513069	     12.84122335	      0.48427918	      2.30511886	    -47.20078355	      1.63563177	    -24.77761256	      0.90928494	      1.55983921	      4.84093642	      3.81704353
      0.97500000	      2.25310306	     -0.79559893	     -3.73583411	     -0.34543178	      1.08699270	      0.31397390	      3.40723001	      6.56319529	     -1.25058670	    -14.04400661	      1.55507293	     -8.57608715	      3.27496903	     13.29202905	      0.40118920	      2.65802804	    -46.61750306	      1.68181365	    -24.77603911	      0.84416722	      1.51478561	      4.87462443	      3.84845372
      0.97916667	      2.24508080	     -0.92416342	     -3.76534468	     -0.34046186	      1.08712522	      0.31408491	      3.00357590	      6.69570883	     -1.16617754	    -13.81867255	      1.67806256	     -8.49858343	      3.27372001	     13.71687955	      0.27684346	      3.03427042	    -46.03138182	      1.76989758	    -24.74090480	      0.73285254	      1.52908847	      5.00215137	      3.91123166
      0.98333333	      2.22184743	     -1.04782597	     -3.78951542	     -0.33550165	      1.08721196	      0.31406459	      2.62093314	      6.80873424	     -1.11728606	    -13.60677942	      1.82544265	     -8.41942903	      3.27104650	     14.15247055	      0.17241398	      3.44040143	    -45.42782134	      1.87093534	    -24.63855730	      0.60111933	      1.51423017	      5.15895040	      3.98511028
      0.98750000	      2.23415866	     -1.14645677	     -3.85891679	     -0.33051849	      1.08733978	      0.31394022	      2.21307934	      6.87222516	     -1.15622412	    -13.42641799	      2.02872337	     -8.04794966	      3.22141365	     14.52389745	      0.10563056	      3.82764688	    -44.79761511	      2.34073138	    -24.02997763	     -0.51929188	      1.41869568	      5.33257248	      4.40285281
      0.99166667	      2.19087313	     -1.29351968	     -3.87299470	     -0.32562511	      1.08731995	      0.31395968	      1.84138636	      7.01985601	     -1.05657956	    -13.18659347	      2.13906174	     -8.07537978	      3.21591178	     14.97934763	     -0.03133799	      4.23243688	    -44.17021845	      2.28662602	    -24.00673218	     -0.62827264	      1.40369780	      5.49466887	      4.39190323
      0.99583333	      2.14565578	     -1.40701556	     -3.94602797	     -0.32068014	      1.08729892	      0.31385363	      1.47991893	      7.10762545	     -0.96983697	    -12.97600013	      2.20765721	     -8.05681871	      3.21305183	     15.40304254	     -0.12182321	      4.62732773	    -43.49011278	      2.29888512	    -23.93499380	     -0.68754216	      1.38147494	      5.61388227	      4.39218230
      1.00000000	      2.11857559	     -1.56712653	     -3.89221075	     -0.31571743	      1.08725168	      0.31369502	      1.08358162	      7.25673699	     -1.04711617	    -12.72265889	      2.38699298	     -8.04797110	      3.19911129	     15.82777929	     -0.24546355	      5.09582938	    -42.83384207	      2.33859079	    -23.55591198	     -0.89432086	      1.38614866	      5.89287679	      4.41834565
      1.00416667	      2.04856633	     -1.67944157	     -3.97443526	     -0.31067070	      1.08716305	      0.31366020	      0.72785440	      7.35108885	     -0.94075389	    -12.46504077	      2.41787683	     -7.99175776	      3.19759803	     16.25483871	     -0.34797324	      5.42811911	    -42.11485018	      2.38450534	    -23.49154672	     -0.92755663	      1.33677556	      5.96183812	      4.42076896
      1.00833333	      2.00027738	     -1.81075151	     -4.01388814	     -0.30566474	      1.08705769	      0.31358661	      0.33801006	      7.46641117	     -0.82714320	    -12.18707114	      2.47234304	     -7.93074988	      3.19609042	     16.65852259	     -0.46172640	      5.81843394	    -41.38719303	      2.40421125	    -23.36228088	     -0.96199702	      1.33431283	      6.09412443	      4.42824313
      1.01250000	      2.01409105	     -2.01864747	     -3.90851301	     -0.30087452	      1.08693625	      0.31330391	     -0.09992826	      7.66472993	     -0.94894133	    -11.93590134	      2.65255792	     -7.87861046	      3.17910374	     17.03886230	     -0.61652719	      6.36687663	    -40.71371314	      2.47523262	    -22.62476874	     -1.14767525	      1.35186698	      6.46202709	      4.48154252
      1.01666667	      1.98426602	     -2.17712562	     -3.91854784	     -0.29590190	      1.08678854	      0.31327555	     -0.52230633	      7.82081131	     -0.82276336	    -11.62538459	      2.69091509	     -7.79070819	      3.17091706	     17.41731641	     -0.76169072	      6.74770960	    -39.97450674	      2.56412906	    -22.40163616	     -1.23692780	      1.36373965	      6.57407738	      4.50492567
      1.02083333	      1.94930576	     -2.33406331	     -3.90566054	     -0.29091193	      1.08660849	      0.31310680	     -0.93161293	      7.96367053	     -0.80502207	    -11.33226652	      2.76577928	     -7.74617258	      3.15754617	     17.79205808	     -0.88848801	      7.15985492	    -39.20922082	      2.59420939	    -21.98628381	     -1.35686615	      1.35159801	      6.79740628	      4.52731258
      1.02500000	      1.87127840	     -2.45186531	     -3.99638387	     -0.28592684	      1.08636920	      0.31290829	     -1.27851091	      8.04451292	     -0.71960235	    -11.08880936	      2.79471643	     -7.70461791	      3.15494534	     18.17584602	     -0.98441997	      7.52905526	    -38.39008076	      2.61934777	    -21.86878026	     -1.38455408	      1.29552346	      6.90357597	      4.52536182
